<svg xmlns="http://www.w3.org/2000/svg" width="203.157" height="48.777" viewBox="0 0 203.157 48.777">
  <g id="Grupo_137" data-name="Grupo 137" transform="translate(-858 -3777)">
    <g id="Grupo_89" data-name="Grupo 89" transform="translate(914.732 3777.043)">
      <g id="Grupo_86" data-name="Grupo 86">
        <path id="Trazado_432" data-name="Trazado 432" d="M1178.6,338.023a5.949,5.949,0,1,1,5.964-5.918A5.963,5.963,0,0,1,1178.6,338.023Zm0-10.364a4.087,4.087,0,0,0-3.888,2.587,4.621,4.621,0,0,0-.4,1.828,4.831,4.831,0,0,0,.4,1.859,4.235,4.235,0,0,0,7.885-.278,4.411,4.411,0,0,0-4-6Z" transform="translate(-1038.136 -326.109)" fill="#777"/>
        <path id="Trazado_433" data-name="Trazado 433" d="M1093.736,338.154a4.684,4.684,0,0,1-4.679-4.679V326.4h1.674v7.072a3.005,3.005,0,1,0,6.011,0V326.4h1.674v7.072A4.684,4.684,0,0,1,1093.736,338.154Z" transform="translate(-1019.893 -326.169)" fill="#777"/>
        <path id="Trazado_434" data-name="Trazado 434" d="M1052.24,337.867h2.091l-2.814-4.256a3.183,3.183,0,0,0,1.484-.793,3.322,3.322,0,0,0,.84-1.371c.012-.035.023-.071.034-.107.016-.052.032-.1.046-.156q.038-.148.065-.3c.007-.037.012-.073.017-.11.01-.07.02-.141.027-.213,0-.048.009-.1.012-.144.005-.077.008-.156.009-.235,0-.023,0-.048,0-.071v-.034c0-.022,0-.045,0-.067,0-.077,0-.153-.009-.228,0-.052-.009-.1-.013-.156s-.014-.119-.023-.177-.023-.146-.037-.219c-.011-.056-.022-.113-.035-.167h0a3.428,3.428,0,0,0-.933-1.7,4.232,4.232,0,0,0-3.052-.961H1046.4v11.465h1.673V333.78h1.562Zm-4.165-9.93h1.766a2.515,2.515,0,0,1,2.3,1.131,2.149,2.149,0,0,1,.242,1.023,2.449,2.449,0,0,1-.07.584c-.005.021-.012.041-.018.063-.016.059-.036.115-.057.17-.015.037-.03.073-.046.108s-.031.063-.048.094-.049.09-.076.131c-.009.013-.019.026-.027.038a1.922,1.922,0,0,1-.335.367c-.038.031-.076.064-.116.093-.012.009-.025.017-.037.026a2.721,2.721,0,0,1-.657.321l-.036.012c-.036.012-.073.021-.109.031a3.478,3.478,0,0,1-.906.117h-1.766v-4.309Z" transform="translate(-1010.583 -326.169)" fill="#777"/>
        <path id="Trazado_435" data-name="Trazado 435" d="M1138.918,331.184c.026-.1.047-.2.066-.3.006-.037.011-.073.016-.11.01-.07.019-.141.026-.213,0-.048.009-.1.013-.144.005-.077.009-.156.01-.235,0-.023,0-.048,0-.071v-.034c0-.022,0-.045,0-.067,0-.077,0-.153-.009-.228,0-.052-.008-.1-.013-.156s-.014-.119-.022-.177-.023-.146-.037-.219c-.011-.056-.021-.113-.034-.167h0a3.424,3.424,0,0,0-.933-1.7,4.233,4.233,0,0,0-3.052-.961H1131.4v11.465h1.673V333.78h1.875a4.232,4.232,0,0,0,3.052-.962,3.321,3.321,0,0,0,.84-1.371c.012-.035.022-.071.033-.107C1138.888,331.288,1138.905,331.237,1138.918,331.184Zm-5.846-3.247h1.766a2.515,2.515,0,0,1,2.3,1.131,2.14,2.14,0,0,1,.242,1.023,2.5,2.5,0,0,1-.07.584l-.019.063c-.016.059-.036.115-.057.17-.014.037-.029.073-.045.108s-.032.063-.048.094-.048.09-.076.131c-.009.013-.018.026-.027.038a1.894,1.894,0,0,1-.335.367c-.038.031-.076.064-.116.093l-.038.026a2.69,2.69,0,0,1-.657.321l-.036.012c-.035.012-.072.021-.109.031a3.47,3.47,0,0,1-.906.117h-1.766v-4.309Z" transform="translate(-1029.136 -326.169)" fill="#777"/>
        <path id="Trazado_436" data-name="Trazado 436" d="M1011.821,332.061h-5.282v1.574h3.987a4.285,4.285,0,1,1-.882-4.533h0c.009.009.016.019.024.028h2.058a5.983,5.983,0,0,0-.875-1.18h0a5.957,5.957,0,1,0,1.646,4.11Z" transform="translate(-1000.581 -326.104)" fill="#777"/>
      </g>
      <g id="Grupo_88" data-name="Grupo 88" transform="translate(0.271 17.535)">
        <path id="Trazado_437" data-name="Trazado 437" d="M1091.919,357.253h-.066a13.218,13.218,0,0,0-15.407-.221,13.058,13.058,0,0,0-5.662,10.851,13.518,13.518,0,0,0,2.661,7.981q4.332,5.192,10.265,5.19h.693a12.892,12.892,0,0,0,7.515-2.6v2.6h5.256v-26.39h-5.256Zm0,10.875a7.9,7.9,0,0,1-7.694,7.67h-.341a7.734,7.734,0,0,1-3.629-.927,7.957,7.957,0,0,1-4.215-7.036,8.071,8.071,0,0,1,1.513-4.58,7.864,7.864,0,0,1,6.4-3.336,8.315,8.315,0,0,1,4.035,1.106,7.839,7.839,0,0,1,3.928,6.738Z" transform="translate(-1016.175 -349.873)" fill="#777"/>
        <path id="Trazado_438" data-name="Trazado 438" d="M1057.646,372.218a8.028,8.028,0,0,1-6.66,3.581,8.3,8.3,0,0,1-3.856-.993q-4.107-2.663-4.107-6.923a8.7,8.7,0,0,1,1.154-4.149,7.988,7.988,0,0,1,6.7-3.814,7.777,7.777,0,0,1,6.7,3.587.618.618,0,0,0,.114-.059l3.378-4.053a12.885,12.885,0,0,0-10.014-4.729,13.167,13.167,0,0,0-13.285,13.171,13.419,13.419,0,0,0,2.714,8.071,13.067,13.067,0,0,0,10.469,5.148h.155a12.886,12.886,0,0,0,8.2-2.954,23.962,23.962,0,0,0,1.853-1.805l-3.479-4.054Z" transform="translate(-1008.969 -349.873)" fill="#777"/>
        <path id="Trazado_439" data-name="Trazado 439" d="M1144.718,354.664a13.167,13.167,0,0,0-13.285,13.219,13.332,13.332,0,0,0,3.114,8.5,13.021,13.021,0,0,0,10.051,4.669h.12a12.868,12.868,0,0,0,8.9-3.528l-3.324-4-.018-.03a8.116,8.116,0,0,1-5.626,2.3,7.886,7.886,0,0,1-3.557-.855,7.727,7.727,0,0,1-3.886-4.466h20.393a16.606,16.606,0,0,0,.27-2.642,13.445,13.445,0,0,0-3.109-8.508A13.112,13.112,0,0,0,1144.718,354.664ZM1137.2,365.24l.526-1.285q2.682-4.035,6.87-4.035a8.7,8.7,0,0,1,3.927,1,8.136,8.136,0,0,1,3.569,4.322Z" transform="translate(-1029.414 -349.873)" fill="#777"/>
        <path id="Trazado_440" data-name="Trazado 440" d="M1127.06,354.664a17.561,17.561,0,0,0-10.5,3h-.06v-3h-5.267v26.39h5.267V368.128a7.7,7.7,0,0,1,.628-2.888q2.288-5.318,9.931-5.32Z" transform="translate(-1025.005 -349.873)" fill="#777"/>
        <g id="Grupo_87" data-name="Grupo 87" transform="translate(0 4.792)">
          <path id="Trazado_441" data-name="Trazado 441" d="M1018.767,367.835l10.959-13.171h-6.81l-.676.741-6.875,8.328-7.629-9.069h-6.594l1.01,1.184,9.691,11.987v.048l-10.917,13.105v.066h6.882l7.485-9.07,7.646,9.087h6.905Z" transform="translate(-1000.927 -354.664)" fill="#777"/>
        </g>
        <path id="Trazado_442" data-name="Trazado 442" d="M1183.008,353.326h-6.218v-4.792h-5.052v4.792h-6.218v5.052h6.218v21.288h5.052V358.379h6.218Z" transform="translate(-1036.854 -348.535)" fill="#777"/>
      </g>
    </g>
    <path id="Trazado_1238" data-name="Trazado 1238" d="M96.507,444.622H81.831l-9.713,9.713-9.712-9.713H47.729V459.3l8.775,8.775,7.338-7.338.938.937L47.73,478.723V493.4H62.406l9.713-9.713,9.663,9.663H96.457V478.672l-8.746-8.745-7.338,7.338-.916-.917.447-.448h0l16.6-16.6Zm-14.141,1.292H93.388L78.542,460.759l-5.511-5.511Zm-31.518,0H61.87l15.759,15.759-5.511,5.511Zm21.271,23.1Zm-10.248,23.1H50.848l14.846-14.846,5.511,5.511Zm20.446-.05L66.607,476.348l5.511-5.511,21.221,21.221Z" transform="translate(810.271 3332.378)" fill="#777"/>
  </g>
</svg>
