<?xml version="1.0" encoding="utf-8"?>
<!-- Generator: Adobe Illustrator 23.0.6, SVG Export Plug-In . SVG Version: 6.00 Build 0)  -->
<svg version="1.1" id="Capa_1" xmlns="http://www.w3.org/2000/svg" xmlns:xlink="http://www.w3.org/1999/xlink" x="0px" y="0px"
	 viewBox="0 0 480 360" style="enable-background:new 0 0 480 360;" xml:space="preserve">
<style type="text/css">
	.st0{fill:#E6E6E6;}
	.st1{fill:#FFFFFF;}
	.st2{fill:#999999;}
</style>
<g>
	<rect x="0.7" y="0.5" class="st0" width="478.6" height="359"/>
	<path class="st1" d="M478.6,1V359H1.4V1H478.6 M480,0H0v360h480V0L480,0z"/>
</g>
<g>
	<path class="st2" d="M240,204c5.1,0,9.5-1.8,13.2-5.5c3.7-3.7,5.5-8,5.5-13.2s-1.8-9.5-5.5-13.2c-3.7-3.7-8-5.5-13.2-5.5
		s-9.5,1.8-13.2,5.5c-3.7,3.7-5.5,8-5.5,13.2s1.8,9.5,5.5,13.2C230.5,202.2,234.9,204,240,204L240,204z M269.3,156
		c2.9,0,5.5,1,7.5,3.1c2.1,2.1,3.1,4.6,3.1,7.5V204c0,2.9-1,5.5-3.1,7.5c-2.1,2.1-4.6,3.1-7.5,3.1h-58.7c-2.9,0-5.5-1-7.5-3.1
		c-2.1-2.1-3.1-4.6-3.1-7.5v-37.3c0-2.9,1-5.5,3.1-7.5c2.1-2.1,4.6-3.1,7.5-3.1h9.3l2.1-5.7c0.5-1.4,1.5-2.5,2.9-3.5
		c1.4-1,2.8-1.5,4.3-1.5h21.3c1.5,0,2.9,0.5,4.3,1.5c1.4,1,2.4,2.2,2.9,3.5l2.1,5.7H269.3L269.3,156z M240,173.3
		c3.3,0,6.1,1.2,8.5,3.5c2.3,2.3,3.5,5.2,3.5,8.5c0,3.3-1.2,6.1-3.5,8.5c-2.3,2.3-5.2,3.5-8.5,3.5c-3.3,0-6.1-1.2-8.5-3.5
		c-2.3-2.3-3.5-5.2-3.5-8.5c0-3.3,1.2-6.1,3.5-8.5C233.9,174.5,236.7,173.3,240,173.3L240,173.3z"/>
</g>
</svg>
